<svg width="46" height="44" viewBox="0 0 46 44" fill="none" xmlns="http://www.w3.org/2000/svg">
<path fill-rule="evenodd" clip-rule="evenodd" d="M27.0891 21.9597L44.1291 5.35567C45.3879 4.1291 45.3879 2.1465 44.1291 0.91993C42.8703 -0.306643 40.8356 -0.306643 39.5772 0.91993L22.5365 17.524L5.49634 0.91993C4.23755 -0.306643 2.20288 -0.306643 0.944092 0.91993C-0.314697 2.1465 -0.314697 4.1291 0.944092 5.35567L17.9843 21.9597L0.944092 38.5643C-0.314697 39.7905 -0.314697 41.7731 0.944092 42.9997C1.57188 43.6114 2.39604 43.9189 3.22021 43.9189C4.04438 43.9189 4.86855 43.6114 5.49634 42.9997L22.5365 26.3958L39.5772 42.9997C40.2046 43.6114 41.0291 43.9189 41.853 43.9189C42.6771 43.9189 43.5013 43.6114 44.1291 42.9997C45.3879 41.7731 45.3879 39.7905 44.1291 38.5643L27.0891 21.9597Z" fill="white"/>
</svg>
