<svg width="377" height="377" viewBox="0 0 377 377" fill="none" xmlns="http://www.w3.org/2000/svg">
<rect x="2.5" y="2.5" width="372" height="372" rx="186" stroke="#6D7CFF" stroke-width="5"/>
<path d="M188.5 369C288.187 369 369 288.187 369 188.5C369 88.8126 288.187 8 188.5 8C88.8126 8 8 88.8126 8 188.5C8 288.187 88.8126 369 188.5 369Z" fill="#6D7CFF"/>
<path d="M277.869 201.461C277.869 257.933 248.411 303.713 191.94 303.713C135.468 303.713 101.69 257.933 101.69 201.461C101.69 144.99 131.628 110.731 188.099 110.731C244.571 110.731 277.869 144.99 277.869 201.461Z" fill="#8E6F32"/>
<path d="M147.295 199.061C150.477 199.061 153.056 196.482 153.056 193.301C153.056 190.119 150.477 187.54 147.295 187.54C144.114 187.54 141.535 190.119 141.535 193.301C141.535 196.482 144.114 199.061 147.295 199.061Z" fill="black"/>
<path d="M147.775 194.261C148.571 194.261 149.215 193.616 149.215 192.821C149.215 192.025 148.571 191.38 147.775 191.38C146.98 191.38 146.335 192.025 146.335 192.821C146.335 193.616 146.98 194.261 147.775 194.261Z" fill="white"/>
<path d="M232.745 199.061C235.926 199.061 238.505 196.482 238.505 193.301C238.505 190.119 235.926 187.54 232.745 187.54C229.563 187.54 226.984 190.119 226.984 193.301C226.984 196.482 229.563 199.061 232.745 199.061Z" fill="black"/>
<path d="M233.225 194.261C234.02 194.261 234.665 193.616 234.665 192.821C234.665 192.025 234.02 191.38 233.225 191.38C232.429 191.38 231.785 192.025 231.785 192.821C231.785 193.616 232.429 194.261 233.225 194.261Z" fill="white"/>
<path d="M274.029 232.665C274.029 253.345 246.491 306.593 190.02 306.593C133.548 306.593 104.09 249.504 104.09 228.824C104.09 208.145 133.548 228.824 190.02 228.824C246.491 228.824 274.029 211.985 274.029 232.665Z" fill="#465548"/>
<path d="M168.856 276.586C168.856 276.804 168.793 276.976 168.665 277.103C168.545 277.231 168.402 277.295 168.238 277.295C168.081 277.295 167.814 277.182 167.439 276.958C167.064 276.725 166.558 276.425 165.92 276.057C165.282 275.689 164.667 275.341 164.075 275.01C162.792 274.298 161.903 273.829 161.408 273.605C160.92 273.372 160.624 273.218 160.52 273.143C160.414 273.06 160.361 272.94 160.361 272.783C160.361 272.626 160.41 272.509 160.508 272.434C160.605 272.352 160.849 272.228 161.24 272.063C161.63 271.898 162.147 271.654 162.792 271.331C163.438 271.002 164.063 270.664 164.671 270.319C165.893 269.637 166.899 269.01 167.686 268.44C167.859 268.313 168.024 268.248 168.181 268.248C168.347 268.248 168.5 268.301 168.642 268.407C168.793 268.511 168.868 268.654 168.868 268.834C168.868 269.141 168.718 269.374 168.418 269.531C168.118 269.689 167.802 269.85 167.473 270.015C167.143 270.172 166.779 270.349 166.381 270.544C165.991 270.739 165.579 270.945 165.144 271.163C164.716 271.373 164.284 271.594 163.849 271.827C163.182 272.171 162.574 272.498 162.027 272.806C164.982 274.463 167.105 275.547 168.395 276.057C168.703 276.185 168.856 276.361 168.856 276.586ZM184.282 263.816C184.522 264.731 184.642 265.743 184.642 266.853C184.642 267.957 184.548 268.984 184.361 269.936C184.173 270.882 183.911 271.76 183.573 272.569C183.236 273.372 182.831 274.099 182.358 274.752C181.893 275.397 181.375 275.948 180.805 276.406C179.628 277.351 178.349 277.824 176.968 277.824C176.751 277.824 176.608 277.756 176.541 277.621C176.482 277.479 176.451 277.31 176.451 277.115V276.147C176.451 275.683 176.447 275.12 176.44 274.459C176.44 273.792 176.436 273.053 176.429 272.243C176.429 271.425 176.421 270.581 176.406 269.712C176.399 268.834 176.387 267.953 176.372 267.067C176.364 266.175 176.354 265.324 176.338 264.514C176.293 262.833 176.241 261.509 176.181 260.542C176.144 260.032 176.368 259.747 176.856 259.687C177.576 259.582 178.168 259.529 178.634 259.529C181.649 259.529 183.532 260.958 184.282 263.816ZM177.576 276.766C178.424 276.736 179.268 276.372 180.108 275.675C181.668 274.377 182.711 272.442 183.236 269.869C183.415 268.984 183.506 267.982 183.506 266.865C183.506 265.74 183.366 264.765 183.089 263.939C182.819 263.107 182.467 262.444 182.032 261.948C181.214 261.018 180.161 260.553 178.87 260.553C178.308 260.553 177.85 260.613 177.497 260.733C177.438 261.506 177.407 262.59 177.407 263.985C177.407 265.657 177.411 266.936 177.419 267.821C177.426 268.706 177.434 269.572 177.442 270.42C177.456 271.268 177.468 272.082 177.475 272.862C177.49 273.635 177.505 274.329 177.52 274.943C177.542 275.716 177.562 276.324 177.576 276.766ZM188.49 271.613L188.513 275.608C188.513 275.968 188.513 276.275 188.513 276.53C188.52 276.643 188.523 276.74 188.523 276.822C190.414 276.822 191.67 276.792 192.293 276.732C192.938 276.665 193.313 276.646 193.418 276.676C193.523 276.706 193.613 276.755 193.688 276.822C193.838 276.958 193.913 277.107 193.913 277.272C193.913 277.43 193.842 277.569 193.699 277.689C193.557 277.801 193.358 277.849 193.103 277.835C191.873 277.737 190.763 277.723 189.772 277.79C188.782 277.849 188.227 277.888 188.107 277.902C187.987 277.925 187.879 277.925 187.781 277.902C187.691 277.888 187.608 277.849 187.533 277.79C187.361 277.662 187.283 277.475 187.297 277.227C187.409 275.059 187.466 272.663 187.466 270.038C187.466 267.405 187.466 265.751 187.466 265.076C187.474 264.394 187.478 263.77 187.478 263.208C187.462 262.001 187.436 261.149 187.399 260.654C187.361 260.152 187.368 259.851 187.421 259.754C187.481 259.656 187.552 259.585 187.635 259.54C187.747 259.488 187.889 259.477 188.062 259.507C188.377 259.559 188.794 259.585 189.311 259.585C190.309 259.585 190.988 259.567 191.348 259.529C191.716 259.485 191.952 259.481 192.056 259.518C192.162 259.548 192.247 259.593 192.316 259.653C192.465 259.773 192.54 259.919 192.54 260.091C192.54 260.264 192.473 260.407 192.338 260.52C192.203 260.632 192.019 260.685 191.787 260.677C191.554 260.662 191.307 260.647 191.043 260.632C190.781 260.609 190.5 260.591 190.2 260.575C189.57 260.553 189.022 260.561 188.558 260.598C188.558 261.25 188.554 261.899 188.546 262.544C188.539 263.31 188.531 264.086 188.523 264.874C188.501 266.989 188.49 268.549 188.49 269.554C189.428 269.554 190.118 269.531 190.561 269.487C191.041 269.434 191.34 269.456 191.46 269.554C191.588 269.651 191.651 269.783 191.651 269.948C191.651 270.361 191.265 270.559 190.492 270.544C190.335 270.536 190.193 270.533 190.065 270.533L189.154 270.522H188.49V271.613ZM203.387 259.495C203.597 259.495 203.769 259.574 203.904 259.731C204.046 259.882 204.073 260.103 203.983 260.396C203.9 260.689 203.799 261.086 203.679 261.588C203.566 262.09 203.439 262.664 203.296 263.31C203.154 263.947 203.001 264.645 202.835 265.403C202.67 266.152 202.498 266.932 202.318 267.742C202.145 268.553 201.965 269.381 201.777 270.229C201.598 271.069 201.414 271.898 201.226 272.716C200.806 274.546 200.443 276.05 200.135 277.227C200.038 277.625 199.798 277.824 199.415 277.824C199.009 277.824 198.743 277.625 198.616 277.227C198.511 276.889 198.286 275.907 197.941 274.28C197.604 272.645 197.341 271.407 197.154 270.567C196.973 269.719 196.782 268.849 196.579 267.957C196.385 267.056 196.182 266.164 195.972 265.279C195.537 263.456 195.204 262.166 194.97 261.409C194.746 260.643 194.633 260.182 194.633 260.024C194.633 259.859 194.685 259.725 194.791 259.619C194.903 259.514 195.042 259.458 195.206 259.45C195.379 259.443 195.548 259.499 195.713 259.619C195.885 259.739 196.005 259.994 196.073 260.384C196.148 260.774 196.245 261.288 196.365 261.926C196.493 262.564 196.632 263.253 196.782 263.996C196.932 264.731 197.089 265.503 197.254 266.314C197.427 267.116 197.6 267.923 197.772 268.732C197.945 269.535 198.118 270.327 198.289 271.107C198.462 271.88 198.631 272.607 198.796 273.289C199.051 274.392 199.276 275.292 199.471 275.99C199.651 275.488 199.839 274.797 200.034 273.92C200.311 272.651 200.506 271.744 200.619 271.197C200.754 270.559 200.919 269.712 201.114 268.654C201.309 267.589 201.478 266.696 201.62 265.976C201.763 265.249 201.897 264.569 202.025 263.939C202.153 263.302 202.273 262.702 202.385 262.139C202.505 261.569 202.595 261.082 202.655 260.677C202.723 260.264 202.809 259.965 202.914 259.776C203.027 259.589 203.184 259.495 203.387 259.495ZM210.936 277.171C210.486 277.171 210.261 276.972 210.261 276.574C210.261 276.29 210.407 276.088 210.7 275.968C210.993 275.84 211.33 275.689 211.713 275.517C212.102 275.337 212.523 275.142 212.972 274.932C213.43 274.715 213.903 274.486 214.39 274.246C214.878 274.006 215.343 273.769 215.785 273.537C216.378 273.222 216.858 272.944 217.226 272.704C214.27 271.039 212.106 269.929 210.733 269.374C210.426 269.247 210.272 269.074 210.272 268.856C210.272 268.631 210.328 268.455 210.441 268.328C210.561 268.2 210.7 268.136 210.857 268.136C211.022 268.136 211.184 268.177 211.341 268.26C213.989 269.895 216.262 271.152 218.16 272.029C218.355 272.12 218.504 272.206 218.609 272.289C218.715 272.363 218.767 272.48 218.767 272.637C218.767 272.795 218.715 272.915 218.609 272.997C218.504 273.072 218.351 273.162 218.148 273.267C217.946 273.365 217.68 273.499 217.349 273.672C217.027 273.845 216.674 274.036 216.291 274.246C215.909 274.455 215.504 274.677 215.077 274.91C214.656 275.142 214.233 275.378 213.806 275.618C213.348 275.881 212.815 276.188 212.207 276.541C211.6 276.893 211.255 277.089 211.172 277.126C211.097 277.156 211.018 277.171 210.936 277.171Z" fill="white"/>
<path d="M279.31 178.899C274.509 190.42 259.148 201.461 259.148 186.349C253.867 151.536 206.003 164.497 189.06 164.497C170.808 164.497 125.213 150.564 118.492 186.349C114.933 205.302 97.3698 187.16 97.3698 178.899C97.3698 152.387 91.1291 78.0878 189.06 78.0878C286.991 78.0878 279.31 152.387 279.31 178.899Z" fill="#1C1A23"/>
<path d="M189.06 120.332C207.619 120.332 222.664 105.288 222.664 86.7287C222.664 68.1699 207.619 53.125 189.06 53.125C170.501 53.125 155.456 68.1699 155.456 86.7287C155.456 105.288 170.501 120.332 189.06 120.332Z" fill="#1C1A23"/>
</svg>
