<svg width="16" height="20" viewBox="0 0 16 20" fill="none" xmlns="http://www.w3.org/2000/svg">
<path fill-rule="evenodd" clip-rule="evenodd" d="M13.012 6C13.5469 6 13.9804 6.44772 13.9804 7V17C13.9804 18.6569 12.6798 20 11.0753 20H5.26514C3.66071 20 2.36006 18.6569 2.36006 17V7C2.36006 6.44772 2.79362 6 3.32842 6H13.012ZM12.0437 8H4.29678V17C4.29678 17.5523 4.73034 18 5.26514 18H11.0753C11.6101 18 12.0437 17.5523 12.0437 17V8ZM5.26514 1C5.26514 0.44772 5.6987 0 6.2335 0H10.1069C10.6418 0 11.0753 0.44772 11.0753 1V2H14.9487C15.4836 2 15.9171 2.44772 15.9171 3C15.9171 3.55228 15.4836 4 14.9487 4H1.3917C0.856894 4 0.42334 3.55228 0.42334 3C0.42334 2.44772 0.856894 2 1.3917 2H5.26514V1Z" fill="white"/>
</svg>
