<svg width="21" height="20" viewBox="0 0 21 20" fill="none" xmlns="http://www.w3.org/2000/svg">
<path fill-rule="evenodd" clip-rule="evenodd" d="M5.002 20C3.34515 20 2.002 18.6569 2.002 17V11H1.002C0.111104 11 -0.335066 9.9229 0.294894 9.2929L9.29491 0.29289C9.68541 -0.09763 10.3186 -0.09763 10.7091 0.29289L19.7091 9.2929C20.3391 9.9229 19.8929 11 19.002 11H18.002V17C18.002 18.6569 16.6588 20 15.002 20H5.002ZM10.002 2.41421L3.35291 9.0633C3.7321 9.2054 4.002 9.5712 4.002 10V17C4.002 17.5523 4.44972 18 5.002 18L7.002 17.999V14C7.002 12.8954 7.89743 12 9.00201 12H11.002C12.1066 12 13.002 12.8954 13.002 14V17.999L15.002 18C15.5543 18 16.002 17.5523 16.002 17V10C16.002 9.5712 16.2719 9.2054 16.6511 9.0633L10.002 2.41421ZM11.002 14H9.00201V17.999H11.002V14Z" fill="white"/>
</svg>
