<svg width="143" height="32" viewBox="0 0 143 32" fill="none" xmlns="http://www.w3.org/2000/svg">
<path fill-rule="evenodd" clip-rule="evenodd" d="M69.5102 23.6066C70.0965 23.6066 70.5714 24.0763 70.5714 24.6557C70.5714 25.2352 70.0965 25.7049 69.5102 25.7049H50.4081C49.822 25.7049 49.3469 25.2352 49.3469 24.6557C49.3469 24.0763 49.822 23.6066 50.4081 23.6066H69.5102ZM53.9028 16.5696L65.5762 5.02861C65.9588 4.6504 66.5605 4.6213 66.977 4.94133L67.0768 5.02861L70.2605 8.17616C70.643 8.55439 70.6728 9.14948 70.3491 9.56108L70.2605 9.65991L58.587 21.2009C58.4215 21.3649 58.206 21.469 57.9763 21.4991L57.8367 21.5082H54.653C54.1086 21.5082 53.6603 21.1032 53.5987 20.5814L53.5918 20.459V17.3115C53.5918 17.0796 53.6693 16.8556 53.8104 16.6736L53.9028 16.5696ZM66.3265 7.25424L55.7143 17.746V19.4098H57.3974L68.0096 8.91803L66.3265 7.25424Z" fill="#00C2FF"/>
<path d="M15.5427 9.87489C14.9697 9.87489 14.4985 9.71121 14.1292 9.38387C13.7726 9.04393 13.5943 8.62846 13.5943 8.13744C13.5943 7.63384 13.7726 7.21836 14.1292 6.89102C14.4985 6.55108 14.9697 6.38111 15.5427 6.38111C16.1031 6.38111 16.5615 6.55108 16.9181 6.89102C17.2874 7.21836 17.472 7.63384 17.472 8.13744C17.472 8.62846 17.2874 9.04393 16.9181 9.38387C16.5615 9.71121 16.1031 9.87489 15.5427 9.87489ZM17.1855 22.8679C17.1855 24.1647 16.8544 25.0964 16.1922 25.6629C15.53 26.2421 14.6067 26.5317 13.4224 26.5317H12.1426V23.7933H12.9258C13.2823 23.7933 13.537 23.7241 13.6898 23.5856C13.8427 23.4471 13.9191 23.2205 13.9191 22.9057V10.9702H17.1855V22.8679ZM24.3859 21.6593C23.3417 21.6593 22.3993 21.4389 21.5588 20.9983C20.7311 20.5576 20.0752 19.9281 19.5913 19.1098C19.1201 18.2914 18.8845 17.3346 18.8845 16.2392C18.8845 15.1565 19.1265 14.2059 19.6104 13.3875C20.0943 12.5566 20.7565 11.9208 21.597 11.4801C22.4375 11.0395 23.3799 10.8191 24.4241 10.8191C25.4684 10.8191 26.4107 11.0395 27.2512 11.4801C28.0917 11.9208 28.7539 12.5566 29.2378 13.3875C29.7218 14.2059 29.9637 15.1565 29.9637 16.2392C29.9637 17.322 29.7154 18.2788 29.2187 19.1098C28.7348 19.9281 28.0662 20.5576 27.213 20.9983C26.3725 21.4389 25.4302 21.6593 24.3859 21.6593ZM24.3859 18.8643C25.0099 18.8643 25.5384 18.6376 25.9714 18.1844C26.4171 17.7311 26.64 17.0828 26.64 16.2392C26.64 15.3957 26.4235 14.7473 25.9905 14.294C25.5702 13.8408 25.0481 13.6142 24.4241 13.6142C23.7874 13.6142 23.2589 13.8408 22.8387 14.294C22.4184 14.7347 22.2083 15.3831 22.2083 16.2392C22.2083 17.0828 22.412 17.7311 22.8196 18.1844C23.2398 18.6376 23.7619 18.8643 24.3859 18.8643ZM37.6374 18.7698V21.5082H35.9755C34.7912 21.5082 33.8679 21.2249 33.2057 20.6584C32.5435 20.0792 32.2124 19.1412 32.2124 17.8445V13.6519H30.9135V10.9702H32.2124V8.40184H35.4788V10.9702H37.6183V13.6519H35.4788V17.8822C35.4788 18.197 35.5553 18.4236 35.7081 18.5621C35.8609 18.7006 36.1156 18.7698 36.4722 18.7698H37.6374ZM43.793 21.6593C42.8634 21.6593 42.0356 21.5019 41.3097 21.1871C40.5839 20.8724 40.0108 20.4443 39.5906 19.9029C39.1703 19.349 38.9347 18.7321 38.8838 18.0522H42.112C42.1502 18.4173 42.3222 18.7132 42.6278 18.9398C42.9334 19.1664 43.3091 19.2797 43.7548 19.2797C44.1623 19.2797 44.4743 19.2042 44.6908 19.0531C44.92 18.8894 45.0346 18.6817 45.0346 18.4299C45.0346 18.1277 44.8755 17.9074 44.5571 17.7689C44.2387 17.6178 43.723 17.4542 43.0098 17.2779C42.2457 17.1016 41.609 16.9191 41.0996 16.7302C40.5902 16.5288 40.1509 16.2203 39.7816 15.8049C39.4123 15.3768 39.2276 14.8039 39.2276 14.0863C39.2276 13.482 39.3932 12.9343 39.7243 12.4433C40.0681 11.9397 40.5648 11.5431 41.2142 11.2535C41.8764 10.9639 42.6596 10.8191 43.5638 10.8191C44.9009 10.8191 45.9515 11.1465 46.7156 11.8012C47.4924 12.4559 47.9382 13.3246 48.0528 14.4073H45.0346C44.9837 14.0422 44.8182 13.7527 44.538 13.5386C44.2706 13.3246 43.914 13.2176 43.4683 13.2176C43.0862 13.2176 42.7933 13.2931 42.5896 13.4442C42.3858 13.5827 42.284 13.7778 42.284 14.0296C42.284 14.3318 42.4431 14.5584 42.7615 14.7095C43.0926 14.8606 43.602 15.0117 44.2897 15.1628C45.0792 15.3642 45.7223 15.5656 46.219 15.7671C46.7156 15.9559 47.1486 16.2707 47.5179 16.7113C47.8999 17.1394 48.0973 17.7186 48.1101 18.4488C48.1101 19.0657 47.9318 19.6197 47.5752 20.1107C47.2314 20.5891 46.7284 20.9668 46.0662 21.2438C45.4167 21.5208 44.659 21.6593 43.793 21.6593Z" fill="#00C2FF"/>
<path d="M0.53064 21.5082V31.4754H68.8141L77.4694 21.5082" stroke="#00C2FF"/>
<path d="M77.4694 10.4918V0.5246L9.18625 0.52459L0.53064 10.4918" stroke="#00C2FF"/>
<rect x="100" y="6" width="43" height="21" fill="#7BFFB0"/>
<path d="M107.086 15.05C107.338 14.518 107.725 14.084 108.248 13.748C108.78 13.412 109.405 13.244 110.124 13.244C110.824 13.244 111.449 13.4073 112 13.734C112.551 14.0513 112.98 14.5087 113.288 15.106C113.605 15.694 113.764 16.38 113.764 17.164C113.764 17.948 113.605 18.6387 113.288 19.236C112.98 19.8333 112.546 20.2953 111.986 20.622C111.435 20.9487 110.815 21.112 110.124 21.112C109.396 21.112 108.766 20.9487 108.234 20.622C107.711 20.286 107.329 19.852 107.086 19.32V21H106.12V10.64H107.086V15.05ZM112.77 17.164C112.77 16.5293 112.644 15.9833 112.392 15.526C112.149 15.0593 111.813 14.7047 111.384 14.462C110.955 14.2193 110.469 14.098 109.928 14.098C109.405 14.098 108.925 14.224 108.486 14.476C108.057 14.728 107.716 15.0873 107.464 15.554C107.212 16.0207 107.086 16.562 107.086 17.178C107.086 17.794 107.212 18.3353 107.464 18.802C107.716 19.2687 108.057 19.628 108.486 19.88C108.925 20.132 109.405 20.258 109.928 20.258C110.469 20.258 110.955 20.1367 111.384 19.894C111.813 19.642 112.149 19.2827 112.392 18.816C112.644 18.34 112.77 17.7893 112.77 17.164ZM122.483 16.786C122.483 17.122 122.474 17.3787 122.455 17.556H116.113C116.141 18.1347 116.281 18.6293 116.533 19.04C116.785 19.4507 117.117 19.7633 117.527 19.978C117.938 20.1833 118.386 20.286 118.871 20.286C119.506 20.286 120.038 20.132 120.467 19.824C120.906 19.516 121.195 19.1007 121.335 18.578H122.371C122.185 19.3247 121.783 19.936 121.167 20.412C120.561 20.8787 119.795 21.112 118.871 21.112C118.153 21.112 117.509 20.9533 116.939 20.636C116.37 20.3093 115.922 19.852 115.595 19.264C115.278 18.6667 115.119 17.9713 115.119 17.178C115.119 16.3847 115.278 15.6893 115.595 15.092C115.913 14.4947 116.356 14.0373 116.925 13.72C117.495 13.4027 118.143 13.244 118.871 13.244C119.599 13.244 120.234 13.4027 120.775 13.72C121.326 14.0373 121.746 14.4667 122.035 15.008C122.334 15.54 122.483 16.1327 122.483 16.786ZM121.489 16.758C121.499 16.1887 121.382 15.7033 121.139 15.302C120.906 14.9007 120.584 14.5973 120.173 14.392C119.763 14.1867 119.315 14.084 118.829 14.084C118.101 14.084 117.481 14.3173 116.967 14.784C116.454 15.2507 116.169 15.9087 116.113 16.758H121.489ZM125.55 14.182V18.928C125.55 19.3947 125.639 19.7167 125.816 19.894C125.994 20.0713 126.306 20.16 126.754 20.16H127.65V21H126.6C125.91 21 125.396 20.8413 125.06 20.524C124.724 20.1973 124.556 19.6653 124.556 18.928V14.182H123.492V13.356H124.556V11.438H125.55V13.356H127.65V14.182H125.55ZM128.818 17.164C128.818 16.38 128.972 15.694 129.28 15.106C129.598 14.5087 130.032 14.0513 130.582 13.734C131.142 13.4073 131.772 13.244 132.472 13.244C133.2 13.244 133.826 13.412 134.348 13.748C134.88 14.084 135.263 14.5133 135.496 15.036V13.356H136.476V21H135.496V19.306C135.254 19.8287 134.866 20.2627 134.334 20.608C133.812 20.944 133.186 21.112 132.458 21.112C131.768 21.112 131.142 20.9487 130.582 20.622C130.032 20.2953 129.598 19.8333 129.28 19.236C128.972 18.6387 128.818 17.948 128.818 17.164ZM135.496 17.178C135.496 16.562 135.37 16.0207 135.118 15.554C134.866 15.0873 134.521 14.728 134.082 14.476C133.653 14.224 133.177 14.098 132.654 14.098C132.113 14.098 131.628 14.2193 131.198 14.462C130.769 14.7047 130.428 15.0593 130.176 15.526C129.934 15.9833 129.812 16.5293 129.812 17.164C129.812 17.7893 129.934 18.34 130.176 18.816C130.428 19.2827 130.769 19.642 131.198 19.894C131.628 20.1367 132.113 20.258 132.654 20.258C133.177 20.258 133.653 20.132 134.082 19.88C134.521 19.628 134.866 19.2687 135.118 18.802C135.37 18.3353 135.496 17.794 135.496 17.178Z" fill="black"/>
</svg>
