<svg width="394" height="332" viewBox="0 0 394 332" fill="none" xmlns="http://www.w3.org/2000/svg">
<path fill-rule="evenodd" clip-rule="evenodd" d="M351.116 112.869C354.077 112.869 356.476 115.115 356.476 117.885C356.476 120.656 354.077 122.902 351.116 122.902H254.626C251.665 122.902 249.265 120.656 249.265 117.885C249.265 115.115 251.665 112.869 254.626 112.869H351.116ZM272.278 79.2234L331.244 24.043C333.177 22.2347 336.216 22.0956 338.32 23.6257L338.824 24.043L354.906 39.0922C356.838 40.9006 356.988 43.7459 355.353 45.7138L354.906 46.1864L295.94 101.367C295.103 102.151 294.015 102.648 292.855 102.792L292.15 102.836H276.068C273.318 102.836 271.053 100.9 270.742 98.4045L270.708 97.8196V82.7704C270.708 81.6618 271.099 80.5908 271.812 79.7205L272.278 79.2234ZM335.034 34.6843L281.429 84.8482V92.8032H289.93L343.536 42.6393L335.034 34.6843Z" fill="#6D7CFF"/>
<path d="M78.5106 47.2144C75.6159 47.2144 73.2359 46.4318 71.3704 44.8667C69.5692 43.2414 68.6687 41.2549 68.6687 38.9072C68.6687 36.4993 69.5692 34.5128 71.3704 32.9477C73.2359 31.3224 75.6159 30.5098 78.5106 30.5098C81.341 30.5098 83.6567 31.3224 85.4579 32.9477C87.3234 34.5128 88.2561 36.4993 88.2561 38.9072C88.2561 41.2549 87.3234 43.2414 85.4579 44.8667C83.6567 46.4318 81.341 47.2144 78.5106 47.2144ZM86.8087 109.337C86.8087 115.538 85.1363 119.992 81.7913 122.701C78.4463 125.47 73.7826 126.855 67.8003 126.855H61.3354V113.762H65.2915C67.0927 113.762 68.3792 113.431 69.1511 112.769C69.923 112.106 70.309 111.023 70.309 109.518V52.4515H86.8087V109.337ZM123.18 103.558C117.905 103.558 113.145 102.505 108.9 100.398C104.718 98.2913 101.406 95.2814 98.9611 91.3687C96.581 87.4559 95.391 82.8809 95.391 77.6438C95.391 72.4669 96.6132 67.922 99.0576 64.0092C101.502 60.0363 104.847 56.9963 109.093 54.8894C113.338 52.7826 118.098 51.7291 123.373 51.7291C128.648 51.7291 133.408 52.7826 137.653 54.8894C141.899 56.9963 145.244 60.0363 147.688 64.0092C150.133 67.922 151.355 72.4669 151.355 77.6438C151.355 82.8207 150.101 87.3957 147.592 91.3687C145.148 95.2814 141.77 98.2913 137.461 100.398C133.215 102.505 128.455 103.558 123.18 103.558ZM123.18 90.1948C126.332 90.1948 129.002 89.1113 131.189 86.9442C133.44 84.7771 134.566 81.677 134.566 77.6438C134.566 73.6106 133.472 70.5105 131.285 68.3434C129.162 66.1763 126.525 65.0928 123.373 65.0928C120.157 65.0928 117.487 66.1763 115.364 68.3434C113.242 70.4503 112.18 73.5504 112.18 77.6438C112.18 81.677 113.209 84.7771 115.268 86.9442C117.391 89.1113 120.028 90.1948 123.18 90.1948ZM190.117 89.7433V102.836H181.722C175.74 102.836 171.076 101.482 167.731 98.7729C164.386 96.0038 162.714 91.5191 162.714 85.3189V65.2734H156.152V52.4515H162.714V40.1713H179.214V52.4515H190.02V65.2734H179.214V85.4995C179.214 87.0044 179.599 88.0879 180.371 88.7501C181.143 89.4123 182.43 89.7433 184.231 89.7433H190.117ZM221.211 103.558C216.515 103.558 212.334 102.806 208.667 101.301C205 99.7962 202.106 97.7495 199.983 95.161C197.86 92.5124 196.67 89.5627 196.413 86.3121H212.72C212.913 88.0578 213.781 89.4725 215.325 90.556C216.869 91.6395 218.766 92.1813 221.018 92.1813C223.076 92.1813 224.652 91.8201 225.746 91.0978C226.904 90.3152 227.483 89.322 227.483 88.118C227.483 86.6733 226.678 85.6199 225.07 84.9577C223.462 84.2353 220.857 83.4528 217.255 82.61C213.395 81.7673 210.179 80.8944 207.606 79.9915C205.033 79.0283 202.813 77.5535 200.948 75.567C199.082 73.5203 198.15 70.7814 198.15 67.3502C198.15 64.4607 198.986 61.8422 200.658 59.4945C202.395 57.0866 204.904 55.1904 208.185 53.8059C211.53 52.4214 215.486 51.7291 220.053 51.7291C226.807 51.7291 232.114 53.2942 235.974 56.4245C239.898 59.5547 242.149 63.7083 242.728 68.8852H227.483C227.225 67.1395 226.389 65.7549 224.974 64.7316C223.623 63.7083 221.822 63.1966 219.57 63.1966C217.641 63.1966 216.161 63.5578 215.132 64.2801C214.103 64.9423 213.588 65.8753 213.588 67.0793C213.588 68.524 214.392 69.6075 216 70.3299C217.673 71.0523 220.246 71.7746 223.719 72.497C227.708 73.4601 230.956 74.4233 233.465 75.3864C235.974 76.2894 238.161 77.7943 240.026 79.9012C241.956 81.9479 242.953 84.7169 243.017 88.2083C243.017 91.158 242.117 93.8066 240.316 96.1543C238.579 98.4418 236.038 100.248 232.693 101.572C229.412 102.896 225.585 103.558 221.211 103.558Z" fill="#6D7CFF"/>
<path d="M2.68018 102.836V150.492H347.599L391.32 102.836" stroke="#6D7CFF"/>
<path d="M391.32 50.1639V2.50823L46.4021 2.50818L2.68018 50.1639" stroke="#6D7CFF"/>
<rect x="86.4878" y="223" width="222.092" height="109" fill="#6D7CFF"/>
<path d="M144.892 273.6C145.756 271.776 147.084 270.288 148.876 269.136C150.7 267.984 152.844 267.408 155.308 267.408C157.708 267.408 159.852 267.968 161.74 269.088C163.628 270.176 165.1 271.744 166.156 273.792C167.244 275.808 167.788 278.16 167.788 280.848C167.788 283.536 167.244 285.904 166.156 287.952C165.1 290 163.612 291.584 161.692 292.704C159.804 293.824 157.676 294.384 155.308 294.384C152.812 294.384 150.652 293.824 148.828 292.704C147.036 291.552 145.724 290.064 144.892 288.24V294H141.58V258.48H144.892V273.6ZM164.38 280.848C164.38 278.672 163.948 276.8 163.084 275.232C162.252 273.632 161.1 272.416 159.628 271.584C158.156 270.752 156.492 270.336 154.636 270.336C152.844 270.336 151.196 270.768 149.692 271.632C148.22 272.496 147.052 273.728 146.188 275.328C145.324 276.928 144.892 278.784 144.892 280.896C144.892 283.008 145.324 284.864 146.188 286.464C147.052 288.064 148.22 289.296 149.692 290.16C151.196 291.024 152.844 291.456 154.636 291.456C156.492 291.456 158.156 291.04 159.628 290.208C161.1 289.344 162.252 288.112 163.084 286.512C163.948 284.88 164.38 282.992 164.38 280.848ZM197.682 279.552C197.682 280.704 197.65 281.584 197.586 282.192H175.842C175.938 284.176 176.418 285.872 177.282 287.28C178.146 288.688 179.282 289.76 180.69 290.496C182.098 291.2 183.634 291.552 185.298 291.552C187.474 291.552 189.298 291.024 190.77 289.968C192.274 288.912 193.266 287.488 193.746 285.696H197.298C196.658 288.256 195.282 290.352 193.17 291.984C191.09 293.584 188.466 294.384 185.298 294.384C182.834 294.384 180.626 293.84 178.674 292.752C176.722 291.632 175.186 290.064 174.066 288.048C172.978 286 172.434 283.616 172.434 280.896C172.434 278.176 172.978 275.792 174.066 273.744C175.154 271.696 176.674 270.128 178.626 269.04C180.578 267.952 182.802 267.408 185.298 267.408C187.794 267.408 189.97 267.952 191.826 269.04C193.714 270.128 195.154 271.6 196.146 273.456C197.17 275.28 197.682 277.312 197.682 279.552ZM194.274 279.456C194.306 277.504 193.906 275.84 193.074 274.464C192.274 273.088 191.17 272.048 189.762 271.344C188.354 270.64 186.818 270.288 185.154 270.288C182.658 270.288 180.53 271.088 178.77 272.688C177.01 274.288 176.034 276.544 175.842 279.456H194.274ZM208.198 270.624V286.896C208.198 288.496 208.502 289.6 209.11 290.208C209.718 290.816 210.79 291.12 212.326 291.12H215.398V294H211.798C209.43 294 207.67 293.456 206.518 292.368C205.366 291.248 204.79 289.424 204.79 286.896V270.624H201.142V267.792H204.79V261.216H208.198V267.792H215.398V270.624H208.198ZM219.403 280.848C219.403 278.16 219.931 275.808 220.987 273.792C222.075 271.744 223.563 270.176 225.451 269.088C227.371 267.968 229.531 267.408 231.931 267.408C234.427 267.408 236.571 267.984 238.363 269.136C240.187 270.288 241.499 271.76 242.299 273.552V267.792H245.659V294H242.299V288.192C241.467 289.984 240.139 291.472 238.315 292.656C236.523 293.808 234.379 294.384 231.883 294.384C229.515 294.384 227.371 293.824 225.451 292.704C223.563 291.584 222.075 290 220.987 287.952C219.931 285.904 219.403 283.536 219.403 280.848ZM242.299 280.896C242.299 278.784 241.867 276.928 241.003 275.328C240.139 273.728 238.955 272.496 237.451 271.632C235.979 270.768 234.347 270.336 232.555 270.336C230.699 270.336 229.035 270.752 227.563 271.584C226.091 272.416 224.923 273.632 224.059 275.232C223.227 276.8 222.811 278.672 222.811 280.848C222.811 282.992 223.227 284.88 224.059 286.512C224.923 288.112 226.091 289.344 227.563 290.208C229.035 291.04 230.699 291.456 232.555 291.456C234.347 291.456 235.979 291.024 237.451 290.16C238.955 289.296 240.139 288.064 241.003 286.464C241.867 284.864 242.299 283.008 242.299 280.896Z" fill="white"/>
</svg>
