<svg width="108" height="101" viewBox="0 0 108 101" fill="none" xmlns="http://www.w3.org/2000/svg">
<path fill-rule="evenodd" clip-rule="evenodd" d="M102.116 90.8688C105.077 90.8688 107.476 93.1146 107.476 95.8852C107.476 98.6558 105.077 100.902 102.116 100.902H5.62593C2.6653 100.902 0.265381 98.6558 0.265381 95.8852C0.265381 93.1146 2.6653 90.8688 5.62593 90.8688H102.116ZM23.2782 57.2234L82.2442 2.043C84.1767 0.234669 87.2161 0.0955649 89.3201 1.62569L89.824 2.043L105.906 17.0922C107.838 18.9006 107.988 21.7459 106.353 23.7138L105.906 24.1864L46.9396 79.3667C46.1034 80.1508 45.0152 80.6484 43.8547 80.7924L43.1497 80.836H27.0681C24.3181 80.836 22.0533 78.8997 21.7424 76.4045L21.7076 75.8196V60.7704C21.7076 59.6618 22.0989 58.5908 22.8118 57.7205L23.2782 57.2234ZM86.0341 12.6843L32.4286 62.8482V70.8032H40.9305L94.5359 20.6393L86.0341 12.6843Z" fill="#6D7CFF"/>
</svg>
